<?xml version="1.0" encoding="UTF-8"?>
<svg id="Capa_1" data-name="Capa 1" xmlns="http://www.w3.org/2000/svg" viewBox="0 0 2178.17 2089.26">
  <defs>
    <style>
      .cls-1 {
        fill: #fff;
      }
    </style>
  </defs>
  <g>
    <path d="M1712.74,401.42v1080H632.74V401.42h1080ZM1398.17,483.11c-133.09-70.31-319.46-69.87-452.95-1.17-355.59,182.99-381.78,660.43-44.44,875.1,76.89,48.93,176.92,74.18,268.99,75.36-29.95-43.91-48.41-96.09-47.4-148.88-7.94,6.53-10.41,19.06-13.83,28.25l-5.64-21.91c-15.65-109.37,77.43-241.3-26.96-330.49-26.67-22.78-58.48-31.32-86.47-49.39-19.09-12.32-31.74-30.08-32.92-52.43l47.37,12.25c-18.52-16.51-48.05-23.63-60.92-45.51-22.38-38.07,17.5-140.8,43.47-174.72,26.35-34.42,79.7-29.03,119.13-25.74,71.98,6,144.52,23.92,211.31,47.08,45.07,15.62,90.72,33.11,131.05,57.51l-11.61,23.57c16.44-15.46,38.71-33.76,61.24-40.47,73.29-21.83,86.01,60.33,39.46,96.1l-45.43,31.05c13.09.84,25.36-2.53,35.59-8.56,40.47,70.23,59.89,163.32,142.09,200.82,4.69-27.67,7.2-53.96,7.92-81.96,5.06-195.85-100.49-371.55-279.05-465.87ZM999.98,689.78c11.75-7.36,26.19,4.62,34.13,3.45,15.92-2.34,11.15-25.4-11.29-22.16-9.38,1.35-19.08,10.59-22.83,18.71ZM1285.69,726.01c-20.07,4.4-20.85,38.29-1.5,43.99,44.06,12.97,43.06-53.11,1.5-43.99Z"/>
    <path class="cls-1" d="M1398.17,483.11c178.55,94.32,284.11,270.02,279.05,465.87-.72,28-3.23,54.29-7.92,81.96-82.2-37.51-101.62-130.6-142.09-200.82-10.23,6.03-22.5,9.4-35.59,8.56l45.43-31.05c46.54-35.77,33.83-117.93-39.46-96.1-22.53,6.71-44.8,25.01-61.24,40.47l11.61-23.57c-40.32-24.4-85.98-41.89-131.05-57.51-66.79-23.15-139.33-41.08-211.31-47.08-39.43-3.29-92.77-8.69-119.13,25.74-25.97,33.92-65.85,136.65-43.47,174.72,12.86,21.88,42.39,29,60.92,45.51l-47.37-12.25c1.18,22.35,13.83,40.11,32.92,52.43,27.99,18.07,59.8,26.61,86.47,49.39,104.4,89.19,11.32,221.12,26.96,330.49l5.64,21.91c3.42-9.19,5.88-21.73,13.83-28.25-1.01,52.79,17.45,104.97,47.4,148.88-92.08-1.18-192.1-26.43-268.99-75.36-337.34-214.67-311.15-692.1,44.44-875.1,133.49-68.7,319.86-69.14,452.95,1.17ZM1439.66,656.47c-8.59-6.89-27.84-5.4-37.45-.58-1.27.64-1.57,3.02-2.87,3.71-9.84,5.21-19.01,8.83-26.15,17.95l72.03,34.83c8.89-11.65,12.52-31.19,4.64-43.98-.78-1.27-9.26-11.18-10.2-11.93Z"/>
    <path class="cls-1" d="M1285.69,726.01c41.56-9.12,42.56,56.96-1.5,43.99-19.35-5.7-18.57-39.59,1.5-43.99Z"/>
    <path class="cls-1" d="M999.98,689.78c3.75-8.12,13.46-17.35,22.83-18.71,22.45-3.24,27.21,19.82,11.29,22.16-7.93,1.17-22.37-10.81-34.13-3.45Z"/>
    <path d="M1439.66,656.47c.94.75,9.41,10.66,10.2,11.93,7.88,12.79,4.25,32.33-4.64,43.98l-72.03-34.83c7.15-9.12,16.31-12.73,26.15-17.95,1.3-.69,1.6-3.07,2.87-3.71,9.61-4.82,28.86-6.32,37.45.58Z"/>
  </g>
  <g>
    <path class="cls-1" d="M2178.17,0v2089.26H0V0h2178.17ZM1377.42,705.25l11.84-23.46c0-1.33-5.36-5.79-7.06-6.82-20.65-12.6-57-26.53-80.25-35.9-66.22-26.7-142.56-48.26-213.11-59.95-43.67-7.23-129.41-19.37-168.93-2.34-48.75,21.01-87.03,138.93-80.25,188.42,4.67,34.06,45.04,45.3,69.08,62.37.52,3.6-4.59,1.99-6.63,1.54-13.5-2.98-29.1-9.08-42.23-13.8.71,54.23,56.91,66.02,95.08,87.3,50.03,27.9,83.63,71.48,88.25,129.81,6.02,75.98-30.95,141.67-28.58,216.11.51,16,4.9,33.77,6.22,49.85l6.09-3.57,10.17-24.96c1.92,23.25,4.68,45.12,10.79,67.69,25.55,94.45,92.66,163.86,171.54,217.72,3.28,2.24,7.57,2.78,11.13,5.17,26.65,17.91,30.3,44.15,26.64,74.26,18.67-20.27,32.67-40.59,42.25-66.76,18.91-51.65,18.69-107.18,40.28-157.42,28.56-66.44,104.05-101.14,159.71-141.9,78.56-57.52,142.7-131.15,177.32-222.54,2.62-6.93,3.06-15.28,5.94-22.3l-1.65-3.62c-56.85-12.36-104.6-43.45-135.38-92.9-8.02-12.89-17.46-28.31-24.16-41.16-15.87-30.43-27.77-64.59-44.78-94.76-4.44-4.58-31.75,8.33-40.22,5.61l45.84-28.51c24.66-20.99,38.85-49.74,27.05-82.1-20.69-56.72-104.84-10.78-131.97,18.91ZM1350.39,601.79c-7.56,1.21-42.18,18.35-42.22,24.98l73.26,34.75c11.28,5.85,14.02-14.42,14.41-22.47,1.36-28.16-18.72-41.55-45.45-37.27Z"/>
    <path d="M1377.42,705.25c27.13-29.69,111.28-75.63,131.97-18.91,11.8,32.36-2.39,61.11-27.05,82.1l-45.84,28.51c8.47,2.73,35.78-10.18,40.22-5.61,17.02,30.17,28.92,64.33,44.78,94.76,6.7,12.85,16.13,28.27,24.16,41.16,30.78,49.45,78.53,80.54,135.38,92.9l1.65,3.62c-2.87,7.02-3.31,15.38-5.94,22.3-34.62,91.38-98.76,165.01-177.32,222.54-55.66,40.76-131.15,75.46-159.71,141.9-21.59,50.24-21.37,105.77-40.28,157.42-9.58,26.17-23.58,46.49-42.25,66.76,3.66-30.11,0-56.36-26.64-74.26-3.56-2.39-7.85-2.93-11.13-5.17-78.88-53.86-145.99-123.27-171.54-217.72-6.11-22.58-8.87-44.45-10.79-67.69l-10.17,24.96-6.09,3.57c-1.32-16.09-5.71-33.86-6.22-49.85-2.37-74.44,34.6-140.13,28.58-216.11-4.62-58.34-38.22-101.92-88.25-129.81-38.16-21.28-94.36-33.06-95.08-87.3,13.13,4.71,28.73,10.82,42.23,13.8,2.04.45,7.16,2.06,6.63-1.54-24.04-17.07-64.42-28.31-69.08-62.37-6.78-49.49,31.5-167.4,80.25-188.42,39.51-17.03,125.26-4.89,168.93,2.34,70.55,11.69,146.89,33.25,213.11,59.95,23.25,9.37,59.6,23.3,80.25,35.9,1.7,1.04,7.06,5.5,7.06,6.82l-11.84,23.46ZM908.78,640.02c9.64-9.38,46.1,15.31,44.84-6.95-1.29-22.72-43.61-13.62-44.84,6.95ZM1213.8,679.19c-23.87,5.46-23.18,52.34,15.75,46.31,28.81-4.46,23.01-55.16-15.75-46.31Z"/>
    <path d="M1350.39,601.79c26.73-4.28,46.81,9.11,45.45,37.27-.39,8.05-3.12,28.32-14.41,22.47l-73.26-34.75c.04-6.64,34.66-23.77,42.22-24.98Z"/>
    <path class="cls-1" d="M1213.8,679.19c38.77-8.86,44.56,41.84,15.75,46.31-38.93,6.03-39.63-40.85-15.75-46.31Z"/>
    <path class="cls-1" d="M908.78,640.02c1.22-20.57,43.55-29.67,44.84-6.95,1.26,22.27-35.2-2.43-44.84,6.95Z"/>
  </g>
  <path d="M1263.13,1412.34c-6,59.01-12.99,127.86,30.08,174.77,104.38,113.67,464.44,56.66,556.45-155.07,40.33-92.81,33.4-225.1-47.62-319.99-17.07-20-90.8-100.82-198.02-103.38-183.13-4.37-322.52,222.95-340.89,403.69Z"/>
</svg>