<?xml version="1.0" encoding="UTF-8"?>
<svg id="Capa_1" data-name="Capa 1" xmlns="http://www.w3.org/2000/svg" viewBox="0 0 1080 1080">
  <defs>
    <style>
      .cls-1 {
        fill: #fff;
      }
    </style>
  </defs>
  <path d="M1080,0v1080H0V0h1080ZM765.43,81.69c-133.09-70.31-319.46-69.87-452.95-1.17C-43.11,263.51-69.3,740.95,268.04,955.62c76.89,48.93,176.92,74.18,268.99,75.36-29.95-43.91-48.41-96.09-47.4-148.88-7.94,6.53-10.41,19.06-13.83,28.25l-5.64-21.91c-15.65-109.37,77.43-241.3-26.96-330.49-26.67-22.78-58.48-31.32-86.47-49.39-19.09-12.32-31.74-30.08-32.92-52.43l47.37,12.25c-18.52-16.51-48.05-23.63-60.92-45.51-22.38-38.07,17.5-140.8,43.47-174.72,26.35-34.42,79.7-29.03,119.13-25.74,71.98,6,144.52,23.92,211.31,47.08,45.07,15.62,90.72,33.11,131.05,57.51l-11.61,23.57c16.44-15.46,38.71-33.76,61.24-40.47,73.29-21.83,86.01,60.33,39.46,96.1l-45.43,31.05c13.09.84,25.36-2.53,35.59-8.56,40.47,70.23,59.89,163.32,142.09,200.82,4.69-27.67,7.2-53.96,7.92-81.96,5.06-195.85-100.49-371.55-279.05-465.87ZM367.24,288.36c11.75-7.36,26.19,4.62,34.13,3.45,15.92-2.34,11.15-25.4-11.29-22.16-9.38,1.35-19.08,10.59-22.83,18.71ZM652.95,324.59c-20.07,4.4-20.85,38.29-1.5,43.99,44.06,12.97,43.06-53.11,1.5-43.99Z"/>
  <path class="cls-1" d="M765.43,81.69c178.55,94.32,284.11,270.02,279.05,465.87-.72,28-3.23,54.29-7.92,81.96-82.2-37.51-101.62-130.6-142.09-200.82-10.23,6.03-22.5,9.4-35.59,8.56l45.43-31.05c46.54-35.77,33.83-117.93-39.46-96.1-22.53,6.71-44.8,25.01-61.24,40.47l11.61-23.57c-40.32-24.4-85.98-41.89-131.05-57.51-66.79-23.15-139.33-41.08-211.31-47.08-39.43-3.29-92.77-8.69-119.13,25.74-25.97,33.92-65.85,136.65-43.47,174.72,12.86,21.88,42.39,29,60.92,45.51l-47.37-12.25c1.18,22.35,13.83,40.11,32.92,52.43,27.99,18.07,59.8,26.61,86.47,49.39,104.4,89.19,11.32,221.12,26.96,330.49l5.64,21.91c3.42-9.19,5.88-21.73,13.83-28.25-1.01,52.79,17.45,104.97,47.4,148.88-92.08-1.18-192.1-26.43-268.99-75.36C-69.3,740.95-43.11,263.51,312.48,80.52c133.49-68.7,319.86-69.14,452.95,1.17ZM806.92,255.05c-8.59-6.89-27.84-5.4-37.45-.58-1.27.64-1.57,3.02-2.87,3.71-9.84,5.21-19.01,8.83-26.15,17.95l72.03,34.83c8.89-11.65,12.52-31.19,4.64-43.98-.78-1.27-9.26-11.18-10.2-11.93Z"/>
  <path class="cls-1" d="M652.95,324.59c41.56-9.12,42.56,56.96-1.5,43.99-19.35-5.7-18.57-39.59,1.5-43.99Z"/>
  <path class="cls-1" d="M367.24,288.36c3.75-8.12,13.46-17.35,22.83-18.71,22.45-3.24,27.21,19.82,11.29,22.16-7.93,1.17-22.37-10.81-34.13-3.45Z"/>
  <path d="M806.92,255.05c.94.75,9.41,10.66,10.2,11.93,7.88,12.79,4.25,32.33-4.64,43.98l-72.03-34.83c7.15-9.12,16.31-12.73,26.15-17.95,1.3-.69,1.6-3.07,2.87-3.71,9.61-4.82,28.86-6.32,37.45.58Z"/>
</svg>